# xmcd CD database file
#
# Track frame offsets:
#	150
#	17735
#	31065
#	45667
#	58197
#	74582
#	88027
#	109922
#	123722
#	146522
#	166465
#	181517
#	194102
#	207232
#	223538
#	239935
#	254809
#	274460
#	291137
#	305202
#	319647
#
# Disc length: 4556 seconds
#
# Revision: 0
# Processed by: cddbd v1.4PL0 Copyright (c) Steve Scherf et al.
# Submitted via: CDex 1.50Beta7
#
DISCID=5911ca15
DTITLE=Marie Rottrova - Muz c.1
DYEAR=1981
DGENRE=Rhythmic Soul
TTITLE0=Muz c.1
TTITLE1=Ted prave mas svou sanci
TTITLE2=Kdo ma rad
TTITLE3=Osud mi te pral
TTITLE4=Tobogan
TTITLE5=Ja ti vzkazu
TTITLE6=Lasko,vonis destem
TTITLE7=Kdyz tohle vim jen ja
TTITLE8=Playboy
TTITLE9=Prisel muj umelec
TTITLE10=Ja jsem jen pouhym stinem tvym
TTITLE11=Sedm divu sveta
TTITLE12=Mame vikend
TTITLE13=Jak na tom prave jsem
TTITLE14=Hrej mi
TTITLE15=Strapata,nohata
TTITLE16=Hodina H
TTITLE17=Muzi jsou stejni
TTITLE18=Stale vic lidi
TTITLE19=Jak malo nekdy zmuze cas
TTITLE20=Ten vuz uz jel
EXTD=YEAR: 1981
EXTT0=
EXTT1=
EXTT2=
EXTT3=
EXTT4=
EXTT5=
EXTT6=
EXTT7=
EXTT8=
EXTT9=
EXTT10=
EXTT11=
EXTT12=
EXTT13=
EXTT14=
EXTT15=
EXTT16=
EXTT17=
EXTT18=
EXTT19=
EXTT20=
PLAYORDER=
